<svg width="213" height="66" viewBox="0 0 213 66" fill="none" xmlns="http://www.w3.org/2000/svg">
<path d="M21.2999 16.1189C21.3599 16.0589 21.4299 15.9989 21.5899 15.8489C25.6299 12.1389 34.8399 5.50889 43.8099 6.45889C44.5199 6.53889 46.1799 6.75889 46.8299 6.92889L47.4699 7.08889L46.3899 6.50889L46.1099 6.36889C43.2099 4.86889 40.5899 4.60889 40.4299 4.60889C31.7999 4.68889 23.6699 9.59889 18.9099 13.7389L21.2999 16.1289V16.1189Z" fill="url(#paint0_linear_657_972)"/>
<path d="M45.0799 16.1189C45.0199 16.0589 44.9499 15.9989 44.7899 15.8489C40.7499 12.1389 31.5399 5.50889 22.5699 6.45889C21.8599 6.53889 20.1999 6.75889 19.5499 6.92889L18.9099 7.08889L19.9899 6.50889L20.2699 6.36889C23.1699 4.86889 25.7899 4.60889 25.9499 4.60889C34.5799 4.68889 42.7099 9.59889 47.4699 13.7389L45.0799 16.1289V16.1189Z" fill="url(#paint1_linear_657_972)"/>
<path style="mix-blend-mode:multiply" d="M33.1898 8.3091C31.1998 9.1291 28.2498 10.8491 28.2498 10.8491L26.0498 8.7691C27.4898 7.9391 29.4798 7.0791 29.4798 7.0791C29.4798 7.0791 31.8098 7.6491 32.9698 8.2091L33.1798 8.3191L33.1898 8.3091Z" fill="url(#paint2_linear_657_972)"/>
<path style="mix-blend-mode:multiply" d="M36.8999 7.06881C36.8999 7.06881 34.3399 6.01881 33.1899 5.73881C33.1899 5.73881 35.6799 4.97881 37.7599 4.77881L40.7199 6.41881C40.7199 6.41881 38.4999 6.59881 36.8999 7.06881Z" fill="url(#paint3_linear_657_972)"/>
<path d="M45.0799 50.2488C45.0199 50.3088 44.9499 50.3688 44.7899 50.5188C40.7499 54.2288 31.5399 60.8588 22.5699 59.9088C21.8599 59.8288 20.1999 59.6088 19.5499 59.4388L18.9099 59.2788L19.9899 59.8588L20.2699 59.9988C23.1699 61.4988 25.7899 61.7588 25.9499 61.7588C34.5799 61.6788 42.7099 56.7688 47.4699 52.6288L45.0799 50.2388V50.2488Z" fill="url(#paint4_linear_657_972)"/>
<path d="M21.2999 50.2488C21.3599 50.3088 21.4299 50.3688 21.5899 50.5188C25.6299 54.2288 34.8399 60.8588 43.8099 59.9088C44.5199 59.8288 46.1799 59.6088 46.8299 59.4388L47.4699 59.2788L46.3899 59.8588L46.1099 59.9988C43.2099 61.4988 40.5899 61.7588 40.4299 61.7588C31.7999 61.6788 23.6699 56.7688 18.9099 52.6288L21.2999 50.2388V50.2488Z" fill="url(#paint5_linear_657_972)"/>
<path style="mix-blend-mode:multiply" d="M33.1899 58.0488C35.1799 57.2288 38.1299 55.5088 38.1299 55.5088L40.3299 57.5888C38.8899 58.4188 36.8999 59.2788 36.8999 59.2788C36.8999 59.2788 34.5699 58.7088 33.4099 58.1488L33.1999 58.0388L33.1899 58.0488Z" fill="url(#paint6_linear_657_972)"/>
<path style="mix-blend-mode:multiply" d="M29.4899 59.2988C29.4899 59.2988 32.0499 60.3488 33.1999 60.6288C33.1999 60.6288 30.7099 61.3888 28.6299 61.5888L25.6699 59.9488C25.6699 59.9488 27.8899 59.7688 29.4899 59.2988Z" fill="url(#paint7_linear_657_972)"/>
<path d="M49.28 21.0088C49.35 21.0788 49.41 21.1488 49.56 21.3088C53.42 25.5188 60.32 35.0888 59.33 44.4188C59.25 45.1488 59.02 46.8788 58.84 47.5588L58.67 48.2188L59.28 47.0888L59.43 46.7988C60.99 43.7788 61.26 41.0588 61.26 40.8888C61.18 31.9188 56.07 23.4488 51.76 18.5088L49.27 20.9988L49.28 21.0088Z" fill="url(#paint8_linear_657_972)"/>
<path d="M49.28 45.7486C49.35 45.6786 49.41 45.6086 49.56 45.4486C53.42 41.2386 60.32 31.6686 59.33 22.3386C59.25 21.6086 59.02 19.8786 58.84 19.1986L58.67 18.5386L59.28 19.6686L59.43 19.9586C60.99 22.9786 61.26 25.6986 61.26 25.8686C61.18 34.8386 56.07 43.3086 51.76 48.2486L49.27 45.7586L49.28 45.7486Z" fill="url(#paint9_linear_657_972)"/>
<path style="mix-blend-mode:multiply" d="M57.4 33.3787C56.55 31.3087 54.76 28.2387 54.76 28.2387L56.93 25.9487C57.79 27.4487 58.69 29.5187 58.69 29.5187C58.69 29.5187 58.1 31.9387 57.51 33.1487L57.4 33.3687V33.3787Z" fill="url(#paint10_linear_657_972)"/>
<path style="mix-blend-mode:multiply" d="M58.7 37.2287C58.7 37.2287 59.79 34.5687 60.09 33.3687C60.09 33.3687 60.88 35.9587 61.09 38.1187L59.38 41.1987C59.38 41.1987 59.19 38.8987 58.7 37.2287Z" fill="url(#paint11_linear_657_972)"/>
<path d="M17.5099 46.5389C17.4399 46.4689 17.3699 46.3889 17.2099 46.2189C13.0699 41.7089 5.67991 31.4489 6.73991 21.4389C6.81991 20.6489 7.07991 18.7989 7.25991 18.0689L7.43991 17.3589L6.78991 18.5689L6.62991 18.8789C4.95991 22.1089 4.66991 25.0289 4.65991 25.2189C4.74991 34.8389 10.2299 43.9089 14.8399 49.2089L17.4999 46.5389H17.5099Z" fill="url(#paint12_linear_657_972)"/>
<path d="M17.5099 20.0289C17.4399 20.0989 17.3699 20.1789 17.2099 20.3489C13.0699 24.8589 5.67991 35.1189 6.73991 45.1289C6.81991 45.9189 7.07991 47.7689 7.25991 48.4989L7.43991 49.2089L6.78991 47.9989L6.62991 47.6889C4.95991 44.4589 4.66991 41.5389 4.65991 41.3489C4.74991 31.7289 10.2299 22.6589 14.8399 17.3589L17.4999 20.0289H17.5099Z" fill="url(#paint13_linear_657_972)"/>
<path style="mix-blend-mode:multiply" d="M8.79992 33.2891C9.70992 35.5091 11.6299 38.7991 11.6299 38.7991L9.30992 41.2491C8.38992 39.6391 7.41992 37.4191 7.41992 37.4191C7.41992 37.4191 8.04992 34.8191 8.68992 33.5291L8.80992 33.2891H8.79992Z" fill="url(#paint14_linear_657_972)"/>
<path style="mix-blend-mode:multiply" d="M7.41986 29.1587C7.41986 29.1587 6.24986 32.0087 5.92986 33.2987C5.92986 33.2987 5.07986 30.5187 4.85986 28.2087L6.68986 24.9087C6.68986 24.9087 6.88986 27.3787 7.41986 29.1587Z" fill="url(#paint15_linear_657_972)"/>
<path d="M50.8098 8.18871C50.1498 8.84871 49.2998 9.76871 48.4098 10.7287C47.5198 11.6887 46.5898 12.6887 45.9098 13.3787L43.8198 15.4587C42.1898 17.0787 40.5698 18.7187 38.9698 20.3587C38.5598 20.7787 38.1498 21.1987 37.7498 21.6187C36.4298 22.9887 35.5298 24.6787 35.0898 26.5887C35.2898 30.6787 38.4698 34.6187 39.5798 35.8787C38.1298 34.1587 38.2398 32.3687 39.9198 30.6687C42.0498 28.5287 44.2498 26.2987 46.4598 24.0587L51.5098 18.9387C53.0698 17.3687 54.6098 15.8087 56.1198 14.2987L56.7998 13.6187L50.8098 8.17871V8.18871Z" fill="url(#paint16_linear_657_972)"/>
<path style="mix-blend-mode:multiply" d="M39.9098 30.6987C38.2298 32.3987 38.1198 34.1887 39.5698 35.9087C38.4598 34.6587 35.2798 30.7087 35.0798 26.6187C35.5198 24.7187 36.4098 23.0287 37.7398 21.6487C38.1498 21.2287 38.5498 20.8087 38.9598 20.3887L45.7098 24.7887L39.8998 30.6887L39.9098 30.6987Z" fill="url(#paint17_linear_657_972)"/>
<path d="M15.3 47.339C13.73 48.929 12.17 50.499 10.64 52.029L9.94995 52.719L15.17 59.049L16 58.209C16.67 57.539 17.52 56.619 18.43 55.639C19.34 54.659 20.27 53.649 20.96 52.959C21.66 52.259 22.37 51.559 23.07 50.859C24.72 49.219 26.35 47.569 27.9799 45.899C28.3899 45.479 28.8 45.049 29.22 44.619C30.56 43.229 31.4599 41.519 31.91 39.599C31.7099 35.469 28.49 31.479 27.37 30.209C28.84 31.949 28.73 33.759 27.03 35.469C24.88 37.639 22.65 39.889 20.41 42.149L15.3 47.319V47.339Z" fill="url(#paint18_linear_657_972)"/>
<path style="mix-blend-mode:multiply" d="M27.0299 35.449C28.7299 33.739 28.8399 31.929 27.3699 30.189C28.4899 31.459 31.7099 35.449 31.9099 39.579C31.4599 41.509 30.5599 43.209 29.2199 44.599C28.8099 45.029 28.3999 45.449 27.9799 45.879L22.4399 40.159L27.0299 35.459V35.449Z" fill="url(#paint19_linear_657_972)"/>
<path style="mix-blend-mode:multiply" d="M44.48 14.8788L50.95 7.98877L57.04 13.3188L48.61 21.7188L44.48 14.8788Z" fill="url(#paint20_linear_657_972)"/>
<path style="mix-blend-mode:multiply" d="M22.3499 51.6389L15.0699 59.2189L9.1499 53.5289L16.2599 46.4189L22.3499 51.6389Z" fill="url(#paint21_linear_657_972)"/>
<path d="M9.31982 12.3887C21.0198 -0.491321 40.5998 -1.26132 53.4798 10.4387" stroke="url(#paint22_linear_657_972)" stroke-width="3.36" stroke-miterlimit="10"/>
<path d="M53.46 10.4487C66.21 22.2887 66.96 42.2287 55.12 54.9787" stroke="url(#paint23_linear_657_972)" stroke-width="3.36" stroke-miterlimit="10"/>
<path d="M56.2 53.8486C44.5 66.7286 24.62 67.6286 11.75 55.9186" stroke="url(#paint24_linear_657_972)" stroke-width="3.36" stroke-miterlimit="10"/>
<path d="M11.7599 55.9186C-0.990094 44.0786 -1.75009 24.2686 10.0899 11.5186" stroke="url(#paint25_linear_657_972)" stroke-width="3.36" stroke-miterlimit="10"/>
<path d="M8.3198 11.0789L10.6298 13.3389C11.7998 14.5189 13.0298 15.7589 14.2898 17.0289L18.7698 21.5489L26.9798 29.8089C26.9798 29.8089 31.6598 34.6189 31.8998 39.6289C31.8998 39.6289 32.3398 38.1089 32.2598 35.7889V31.8289C32.2598 30.6889 32.2598 29.5389 32.2298 28.3889C32.1798 25.2789 31.0898 22.6089 28.9998 20.4789C28.0098 19.4689 26.9598 18.3989 25.7198 17.1589L20.8198 12.2789C19.5398 11.0089 17.8398 9.30891 16.5798 8.05891L14.3998 5.87891C14.3998 5.87891 11.6498 7.47891 8.2998 11.0989L8.3198 11.0789Z" fill="url(#paint26_linear_657_972)"/>
<path d="M57.8699 54.4086L56.1199 52.5686C54.9599 51.3986 53.7399 50.1786 52.4999 48.9286L48.0699 44.4586L39.9499 36.2886C39.9499 36.2886 35.3199 31.5286 35.0799 26.5786C35.0799 26.5786 34.6499 28.0886 34.7299 30.3786V34.2886C34.7299 35.4086 34.7299 36.5586 34.7599 37.6986C34.8099 40.7786 35.8899 43.4086 37.9599 45.5186C38.9399 46.5186 39.9799 47.5786 41.1999 48.7986L46.0399 53.6286C47.3099 54.8886 48.9899 56.5586 50.2299 57.8086L52.0699 59.7386C52.0699 59.7386 54.7399 58.1186 57.8799 54.4086H57.8699Z" fill="url(#paint27_linear_657_972)"/>
<path d="M148.2 24.4485C149.74 24.4485 151.17 24.8385 152.49 25.6185C153.81 26.3985 154.74 27.4485 155.26 28.7585H161.19C160.44 25.9085 158.84 23.5985 156.41 21.8285C153.98 20.0485 151.24 19.1685 148.2 19.1685C144.17 19.1685 140.82 20.4985 138.15 23.1685C135.48 25.8385 134.15 29.1185 134.15 33.0285C134.15 36.9385 135.48 40.2185 138.15 42.8885C140.82 45.5585 144.17 46.8885 148.2 46.8885C151.25 46.8885 153.98 45.9985 156.41 44.2285C158.84 42.4485 160.43 40.1485 161.19 37.2985H155.26C154.73 38.6085 153.81 39.6485 152.49 40.4285C151.17 41.2085 149.74 41.5985 148.2 41.5985C145.68 41.5985 143.63 40.7785 142.04 39.1485C140.45 37.5085 139.66 35.4685 139.66 33.0285C139.66 30.5885 140.45 28.5485 142.04 26.9085C143.63 25.2685 145.68 24.4585 148.2 24.4585V24.4485Z" fill="white"/>
<path d="M177.43 24.7583H187.83V19.4883H162.53V24.7583H162.57V24.8083H177.12C173.8 25.1783 172.12 27.2683 172.12 30.9483V46.8783H177.44V24.7583H177.43Z" fill="white"/>
<path d="M118.64 19.6284L121.13 26.9584L124.89 35.7884H117.47L119.4 31.2984C120.89 27.7984 120.09 25.1584 116.94 23.5284L113.66 31.1984V31.1584L106.86 46.8884H112.69L114.15 43.4584H114.18L115.38 40.6684H126.97L129.58 46.8884H135.34L123.6 19.6384H118.65L118.64 19.6284Z" fill="white"/>
<path d="M200.94 19.6284H195.99L198.48 26.9584L202.24 35.7884H194.82L196.75 31.2984C198.24 27.7984 197.44 25.1584 194.29 23.5284L191.01 31.1984V31.1584L184.21 46.8884H190.04L191.5 43.4584H191.53L192.73 40.6684H204.32L206.93 46.8884H212.69L200.95 19.6384L200.94 19.6284Z" fill="white"/>
<path d="M89.9399 33.7083C90.0099 35.1783 90.5199 36.4083 91.1299 37.6383L84.7299 46.1883H84.7199L84.1099 46.9783H78.4899L78.1799 46.8683L78.3699 46.5983L87.7899 34.0783L88.3899 33.2783L87.0099 31.4383L78.1899 19.7183H84.2299L91.1699 28.9683C90.3399 30.4883 89.8699 32.2583 89.9399 33.7083Z" fill="white"/>
<path d="M95.55 34.2983L105.09 46.9783H99.05L92.09 37.3283C91.98 37.1183 91.89 36.9183 91.8 36.7183C91.34 35.7383 90.99 34.7583 90.94 33.6583C90.88 32.5383 91.23 31.1383 91.83 29.8783C91.89 29.7483 91.95 29.6183 92.02 29.4983L98.55 20.5083H98.57L99.16 19.7183H104.79L105.1 19.8383L104.91 20.0983L95.54 32.5683V32.5483L94.89 33.4283L95.56 34.3283V34.2983H95.55Z" fill="white"/>
<defs>
<linearGradient id="paint0_linear_657_972" x1="33.1899" y1="16.1189" x2="33.1899" y2="4.59889" gradientUnits="userSpaceOnUse">
<stop offset="0.23" stop-color="#1AA9E9"/>
<stop offset="0.38" stop-color="#35A0E6"/>
<stop offset="0.8" stop-color="#7B8AE1"/>
<stop offset="1" stop-color="#9782DF"/>
</linearGradient>
<linearGradient id="paint1_linear_657_972" x1="33.1899" y1="16.1189" x2="33.1899" y2="4.59889" gradientUnits="userSpaceOnUse">
<stop offset="0.19" stop-color="#9C67C8"/>
<stop offset="0.31" stop-color="#9669C9"/>
<stop offset="0.46" stop-color="#8572CD"/>
<stop offset="0.63" stop-color="#6B7FD4"/>
<stop offset="0.82" stop-color="#4692DD"/>
<stop offset="1" stop-color="#1AA9E9"/>
</linearGradient>
<linearGradient id="paint2_linear_657_972" x1="31.5098" y1="6.6391" x2="27.7198" y2="10.4391" gradientUnits="userSpaceOnUse">
<stop offset="0.14" stop-color="#B279DD"/>
<stop offset="0.15" stop-color="#B279DD" stop-opacity="0.97"/>
<stop offset="0.3" stop-color="#B279DD" stop-opacity="0.63"/>
<stop offset="0.43" stop-color="#B279DD" stop-opacity="0.36"/>
<stop offset="0.54" stop-color="#B279DD" stop-opacity="0.16"/>
<stop offset="0.62" stop-color="#B279DD" stop-opacity="0.04"/>
<stop offset="0.67" stop-color="#B279DD" stop-opacity="0"/>
</linearGradient>
<linearGradient id="paint3_linear_657_972" x1="35.2299" y1="7.78881" x2="38.6599" y2="4.36881" gradientUnits="userSpaceOnUse">
<stop offset="0.14" stop-color="#B279DD"/>
<stop offset="0.15" stop-color="#B279DD" stop-opacity="0.97"/>
<stop offset="0.3" stop-color="#B279DD" stop-opacity="0.63"/>
<stop offset="0.43" stop-color="#B279DD" stop-opacity="0.36"/>
<stop offset="0.54" stop-color="#B279DD" stop-opacity="0.16"/>
<stop offset="0.62" stop-color="#B279DD" stop-opacity="0.04"/>
<stop offset="0.67" stop-color="#B279DD" stop-opacity="0"/>
</linearGradient>
<linearGradient id="paint4_linear_657_972" x1="33.1899" y1="50.2388" x2="33.1899" y2="61.7588" gradientUnits="userSpaceOnUse">
<stop offset="0.23" stop-color="#1AA9E9"/>
<stop offset="0.38" stop-color="#35A0E6"/>
<stop offset="0.8" stop-color="#7B8AE1"/>
<stop offset="1" stop-color="#9782DF"/>
</linearGradient>
<linearGradient id="paint5_linear_657_972" x1="33.1999" y1="50.2388" x2="33.1999" y2="61.7588" gradientUnits="userSpaceOnUse">
<stop offset="0.19" stop-color="#9C67C8"/>
<stop offset="0.31" stop-color="#9669C9"/>
<stop offset="0.46" stop-color="#8572CD"/>
<stop offset="0.63" stop-color="#6B7FD4"/>
<stop offset="0.82" stop-color="#4692DD"/>
<stop offset="1" stop-color="#1AA9E9"/>
</linearGradient>
<linearGradient id="paint6_linear_657_972" x1="34.8599" y1="59.7188" x2="38.6599" y2="55.9288" gradientUnits="userSpaceOnUse">
<stop offset="0.14" stop-color="#B279DD"/>
<stop offset="0.15" stop-color="#B279DD" stop-opacity="0.97"/>
<stop offset="0.3" stop-color="#B279DD" stop-opacity="0.63"/>
<stop offset="0.43" stop-color="#B279DD" stop-opacity="0.36"/>
<stop offset="0.54" stop-color="#B279DD" stop-opacity="0.16"/>
<stop offset="0.62" stop-color="#B279DD" stop-opacity="0.04"/>
<stop offset="0.67" stop-color="#B279DD" stop-opacity="0"/>
</linearGradient>
<linearGradient id="paint7_linear_657_972" x1="31.1399" y1="58.5788" x2="27.7199" y2="61.9988" gradientUnits="userSpaceOnUse">
<stop offset="0.14" stop-color="#B279DD"/>
<stop offset="0.15" stop-color="#B279DD" stop-opacity="0.97"/>
<stop offset="0.3" stop-color="#B279DD" stop-opacity="0.63"/>
<stop offset="0.43" stop-color="#B279DD" stop-opacity="0.36"/>
<stop offset="0.54" stop-color="#B279DD" stop-opacity="0.16"/>
<stop offset="0.62" stop-color="#B279DD" stop-opacity="0.04"/>
<stop offset="0.67" stop-color="#B279DD" stop-opacity="0"/>
</linearGradient>
<linearGradient id="paint8_linear_657_972" x1="49.28" y1="33.3788" x2="61.27" y2="33.3788" gradientUnits="userSpaceOnUse">
<stop offset="0.19" stop-color="#9C67C8"/>
<stop offset="0.31" stop-color="#9669C9"/>
<stop offset="0.46" stop-color="#8572CD"/>
<stop offset="0.63" stop-color="#6B7FD4"/>
<stop offset="0.82" stop-color="#4692DD"/>
<stop offset="1" stop-color="#1AA9E9"/>
</linearGradient>
<linearGradient id="paint9_linear_657_972" x1="49.28" y1="33.3786" x2="61.27" y2="33.3786" gradientUnits="userSpaceOnUse">
<stop offset="0.23" stop-color="#1AA9E9"/>
<stop offset="0.38" stop-color="#35A0E6"/>
<stop offset="0.8" stop-color="#7B8AE1"/>
<stop offset="1" stop-color="#9782DF"/>
</linearGradient>
<linearGradient id="paint10_linear_657_972" x1="59.14" y1="31.6387" x2="55.2" y2="27.6887" gradientUnits="userSpaceOnUse">
<stop offset="0.14" stop-color="#B279DD"/>
<stop offset="0.15" stop-color="#B279DD" stop-opacity="0.97"/>
<stop offset="0.3" stop-color="#B279DD" stop-opacity="0.63"/>
<stop offset="0.43" stop-color="#B279DD" stop-opacity="0.36"/>
<stop offset="0.54" stop-color="#B279DD" stop-opacity="0.16"/>
<stop offset="0.62" stop-color="#B279DD" stop-opacity="0.04"/>
<stop offset="0.67" stop-color="#B279DD" stop-opacity="0"/>
</linearGradient>
<linearGradient id="paint11_linear_657_972" x1="57.95" y1="35.4987" x2="61.51" y2="39.0587" gradientUnits="userSpaceOnUse">
<stop offset="0.14" stop-color="#B279DD"/>
<stop offset="0.15" stop-color="#B279DD" stop-opacity="0.97"/>
<stop offset="0.3" stop-color="#B279DD" stop-opacity="0.63"/>
<stop offset="0.43" stop-color="#B279DD" stop-opacity="0.36"/>
<stop offset="0.54" stop-color="#B279DD" stop-opacity="0.16"/>
<stop offset="0.62" stop-color="#B279DD" stop-opacity="0.04"/>
<stop offset="0.67" stop-color="#B279DD" stop-opacity="0"/>
</linearGradient>
<linearGradient id="paint12_linear_657_972" x1="17.5099" y1="33.2889" x2="4.65991" y2="33.2889" gradientUnits="userSpaceOnUse">
<stop offset="0.19" stop-color="#9C67C8"/>
<stop offset="0.31" stop-color="#9669C9"/>
<stop offset="0.46" stop-color="#8572CD"/>
<stop offset="0.63" stop-color="#6B7FD4"/>
<stop offset="0.82" stop-color="#4692DD"/>
<stop offset="1" stop-color="#1AA9E9"/>
</linearGradient>
<linearGradient id="paint13_linear_657_972" x1="17.5099" y1="33.2789" x2="4.65991" y2="33.2789" gradientUnits="userSpaceOnUse">
<stop offset="0.23" stop-color="#1AA9E9"/>
<stop offset="0.38" stop-color="#35A0E6"/>
<stop offset="0.8" stop-color="#7B8AE1"/>
<stop offset="1" stop-color="#9782DF"/>
</linearGradient>
<linearGradient id="paint14_linear_657_972" x1="6.93992" y1="35.1491" x2="11.1699" y2="39.3891" gradientUnits="userSpaceOnUse">
<stop offset="0.14" stop-color="#B279DD"/>
<stop offset="0.15" stop-color="#B279DD" stop-opacity="0.97"/>
<stop offset="0.3" stop-color="#B279DD" stop-opacity="0.63"/>
<stop offset="0.43" stop-color="#B279DD" stop-opacity="0.36"/>
<stop offset="0.54" stop-color="#B279DD" stop-opacity="0.16"/>
<stop offset="0.62" stop-color="#B279DD" stop-opacity="0.04"/>
<stop offset="0.67" stop-color="#B279DD" stop-opacity="0"/>
</linearGradient>
<linearGradient id="paint15_linear_657_972" x1="8.20986" y1="31.0087" x2="4.39986" y2="27.1887" gradientUnits="userSpaceOnUse">
<stop offset="0.14" stop-color="#B279DD"/>
<stop offset="0.15" stop-color="#B279DD" stop-opacity="0.97"/>
<stop offset="0.3" stop-color="#B279DD" stop-opacity="0.63"/>
<stop offset="0.43" stop-color="#B279DD" stop-opacity="0.36"/>
<stop offset="0.54" stop-color="#B279DD" stop-opacity="0.16"/>
<stop offset="0.62" stop-color="#B279DD" stop-opacity="0.04"/>
<stop offset="0.67" stop-color="#B279DD" stop-opacity="0"/>
</linearGradient>
<linearGradient id="paint16_linear_657_972" x1="52.3498" y1="8.51871" x2="37.1998" y2="34.7487" gradientUnits="userSpaceOnUse">
<stop stop-color="#B279DD"/>
<stop offset="0.22" stop-color="#A36ECE"/>
<stop offset="0.63" stop-color="#7C52A7"/>
<stop offset="1" stop-color="#553781"/>
</linearGradient>
<linearGradient id="paint17_linear_657_972" x1="42.3398" y1="22.0887" x2="35.6198" y2="33.7287" gradientUnits="userSpaceOnUse">
<stop stop-color="#B279DD" stop-opacity="0"/>
<stop offset="0.17" stop-color="#A771D2" stop-opacity="0.12"/>
<stop offset="0.48" stop-color="#8B5DB6" stop-opacity="0.42"/>
<stop offset="0.92" stop-color="#5D3D89" stop-opacity="0.9"/>
<stop offset="1" stop-color="#553781"/>
</linearGradient>
<linearGradient id="paint18_linear_657_972" x1="13.8699" y1="58.889" x2="29.77" y2="31.359" gradientUnits="userSpaceOnUse">
<stop stop-color="#B279DD"/>
<stop offset="0.22" stop-color="#A36ECE"/>
<stop offset="0.63" stop-color="#7C52A7"/>
<stop offset="1" stop-color="#553781"/>
</linearGradient>
<linearGradient id="paint19_linear_657_972" x1="24.5699" y1="44.159" x2="31.3699" y2="32.389" gradientUnits="userSpaceOnUse">
<stop offset="0.28" stop-color="#B279DD" stop-opacity="0"/>
<stop offset="0.4" stop-color="#A771D2" stop-opacity="0.12"/>
<stop offset="0.63" stop-color="#8B5DB6" stop-opacity="0.42"/>
<stop offset="0.94" stop-color="#5D3D89" stop-opacity="0.9"/>
<stop offset="1" stop-color="#553781"/>
</linearGradient>
<linearGradient id="paint20_linear_657_972" x1="56.05" y1="11.2288" x2="45.73" y2="17.1988" gradientUnits="userSpaceOnUse">
<stop stop-color="#553781"/>
<stop offset="0.19" stop-color="#5A3B86" stop-opacity="0.94"/>
<stop offset="0.23" stop-color="#63418F" stop-opacity="0.84"/>
<stop offset="0.4" stop-color="#7F55AA" stop-opacity="0.54"/>
<stop offset="0.56" stop-color="#9564C0" stop-opacity="0.31"/>
<stop offset="0.72" stop-color="#A56FD0" stop-opacity="0.14"/>
<stop offset="0.87" stop-color="#AE76D9" stop-opacity="0.03"/>
<stop offset="1" stop-color="#B279DD" stop-opacity="0"/>
</linearGradient>
<linearGradient id="paint21_linear_657_972" x1="12.6099" y1="58.0289" x2="18.5799" y2="47.6789" gradientUnits="userSpaceOnUse">
<stop offset="0.11" stop-color="#553781"/>
<stop offset="0.24" stop-color="#684494" stop-opacity="0.79"/>
<stop offset="0.48" stop-color="#885BB3" stop-opacity="0.45"/>
<stop offset="0.69" stop-color="#9E6BCA" stop-opacity="0.2"/>
<stop offset="0.88" stop-color="#AC75D8" stop-opacity="0.05"/>
<stop offset="1" stop-color="#B279DD" stop-opacity="0"/>
</linearGradient>
<linearGradient id="paint22_linear_657_972" x1="8.06982" y1="7.00868" x2="54.6098" y2="7.00868" gradientUnits="userSpaceOnUse">
<stop stop-color="#00DEFE"/>
<stop offset="0.13" stop-color="#20CBF7"/>
<stop offset="0.39" stop-color="#5EA8EC"/>
<stop offset="0.62" stop-color="#8B8EE4"/>
<stop offset="0.79" stop-color="#A77EDE"/>
<stop offset="0.89" stop-color="#B279DD"/>
</linearGradient>
<linearGradient id="paint23_linear_657_972" x1="58.9029" y1="9.26266" x2="58.4119" y2="56.1501" gradientUnits="userSpaceOnUse">
<stop offset="0.12" stop-color="#B279DD"/>
<stop offset="0.23" stop-color="#A480DF"/>
<stop offset="0.43" stop-color="#8194E5"/>
<stop offset="0.7" stop-color="#48B4F0"/>
<stop offset="1" stop-color="#00DEFE"/>
</linearGradient>
<linearGradient id="paint24_linear_657_972" x1="57.45" y1="59.2686" x2="10.62" y2="59.2686" gradientUnits="userSpaceOnUse">
<stop stop-color="#00DEFE"/>
<stop offset="0.12" stop-color="#20CBF7"/>
<stop offset="0.38" stop-color="#5EA8EC"/>
<stop offset="0.59" stop-color="#8B8EE4"/>
<stop offset="0.76" stop-color="#A77EDE"/>
<stop offset="0.86" stop-color="#B279DD"/>
</linearGradient>
<linearGradient id="paint25_linear_657_972" x1="6.30977" y1="57.1132" x2="6.79943" y2="10.3558" gradientUnits="userSpaceOnUse">
<stop offset="0.13" stop-color="#B279DD"/>
<stop offset="0.23" stop-color="#A480DF"/>
<stop offset="0.43" stop-color="#8194E5"/>
<stop offset="0.7" stop-color="#48B4F0"/>
<stop offset="1" stop-color="#00DEFE"/>
</linearGradient>
<linearGradient id="paint26_linear_657_972" x1="32.2798" y1="22.7389" x2="8.3198" y2="22.7389" gradientUnits="userSpaceOnUse">
<stop stop-color="#0072D1"/>
<stop offset="0.93" stop-color="#00DEFE"/>
</linearGradient>
<linearGradient id="paint27_linear_657_972" x1="34.7199" y1="43.1586" x2="57.8699" y2="43.1586" gradientUnits="userSpaceOnUse">
<stop stop-color="#0072D1"/>
<stop offset="0.84" stop-color="#00DEFE"/>
</linearGradient>
</defs>
</svg>
